<mxfile host="Electron" agent="Mozilla/5.0 (Windows NT 10.0; Win64; x64) AppleWebKit/537.36 (KHTML, like Gecko) draw.io/24.7.17 Chrome/128.0.6613.36 Electron/32.0.1 Safari/537.36" version="24.7.17">
  <diagram id="C5RBs43oDa-KdzZeNtuy" name="Page-1">
    <mxGraphModel dx="1834" dy="3311" grid="1" gridSize="10" guides="1" tooltips="1" connect="1" arrows="1" fold="1" page="0" pageScale="1" pageWidth="827" pageHeight="1169" math="0" shadow="0">
      <root>
        <mxCell id="WIyWlLk6GJQsqaUBKTNV-0" />
        <mxCell id="WIyWlLk6GJQsqaUBKTNV-1" parent="WIyWlLk6GJQsqaUBKTNV-0" />
        <mxCell id="83gg9yhNTPZYEPTGOBz0-6" value="Password minimal 5 karakter. Silahkan coba lagi." style="shape=parallelogram;perimeter=parallelogramPerimeter;whiteSpace=wrap;html=1;fixedSize=1;rounded=0;" vertex="1" parent="WIyWlLk6GJQsqaUBKTNV-1">
          <mxGeometry x="-172.5" y="-1487.5" width="142.5" height="60" as="geometry" />
        </mxCell>
        <mxCell id="o5AYfgIye7YQR3OT79Ui-2" value="" style="edgeStyle=orthogonalEdgeStyle;rounded=0;orthogonalLoop=1;jettySize=auto;html=1;" parent="WIyWlLk6GJQsqaUBKTNV-1" source="o5AYfgIye7YQR3OT79Ui-0" edge="1">
          <mxGeometry relative="1" as="geometry">
            <mxPoint x="90.0666666666666" y="-2220" as="targetPoint" />
          </mxGeometry>
        </mxCell>
        <mxCell id="o5AYfgIye7YQR3OT79Ui-0" value="Menu Utama" style="rounded=0;whiteSpace=wrap;html=1;" parent="WIyWlLk6GJQsqaUBKTNV-1" vertex="1">
          <mxGeometry x="30" y="-2310" width="120" height="60" as="geometry" />
        </mxCell>
        <mxCell id="o5AYfgIye7YQR3OT79Ui-17" value="" style="edgeStyle=orthogonalEdgeStyle;rounded=0;orthogonalLoop=1;jettySize=auto;html=1;" parent="WIyWlLk6GJQsqaUBKTNV-1" source="o5AYfgIye7YQR3OT79Ui-8" target="o5AYfgIye7YQR3OT79Ui-16" edge="1">
          <mxGeometry relative="1" as="geometry" />
        </mxCell>
        <mxCell id="o5AYfgIye7YQR3OT79Ui-8" value="Pilih opsi (1/2/3):&lt;div&gt;1. Login&lt;/div&gt;&lt;div&gt;2. Registrasi&lt;/div&gt;&lt;div&gt;3. Keluar&lt;/div&gt;" style="shape=parallelogram;perimeter=parallelogramPerimeter;whiteSpace=wrap;html=1;fixedSize=1;rounded=0;" parent="WIyWlLk6GJQsqaUBKTNV-1" vertex="1">
          <mxGeometry y="-2220" width="180" height="110" as="geometry" />
        </mxCell>
        <mxCell id="o5AYfgIye7YQR3OT79Ui-15" style="edgeStyle=orthogonalEdgeStyle;rounded=0;orthogonalLoop=1;jettySize=auto;html=1;exitX=0.5;exitY=1;exitDx=0;exitDy=0;" parent="WIyWlLk6GJQsqaUBKTNV-1" source="o5AYfgIye7YQR3OT79Ui-8" target="o5AYfgIye7YQR3OT79Ui-8" edge="1">
          <mxGeometry relative="1" as="geometry" />
        </mxCell>
        <mxCell id="o5AYfgIye7YQR3OT79Ui-25" value="" style="edgeStyle=orthogonalEdgeStyle;rounded=0;orthogonalLoop=1;jettySize=auto;html=1;" parent="WIyWlLk6GJQsqaUBKTNV-1" source="o5AYfgIye7YQR3OT79Ui-16" target="o5AYfgIye7YQR3OT79Ui-24" edge="1">
          <mxGeometry relative="1" as="geometry">
            <Array as="points">
              <mxPoint x="-255" y="-2010" />
            </Array>
          </mxGeometry>
        </mxCell>
        <mxCell id="oXb07rZDEVNdJx9yFHIo-4" value="no" style="edgeLabel;html=1;align=center;verticalAlign=middle;resizable=0;points=[];" parent="o5AYfgIye7YQR3OT79Ui-25" vertex="1" connectable="0">
          <mxGeometry x="-0.5356" y="-6" relative="1" as="geometry">
            <mxPoint as="offset" />
          </mxGeometry>
        </mxCell>
        <mxCell id="o5AYfgIye7YQR3OT79Ui-16" value="Pilihan == &#39;1&#39;" style="rhombus;whiteSpace=wrap;html=1;rounded=0;" parent="WIyWlLk6GJQsqaUBKTNV-1" vertex="1">
          <mxGeometry x="45" y="-2060" width="90" height="100" as="geometry" />
        </mxCell>
        <mxCell id="o5AYfgIye7YQR3OT79Ui-37" value="" style="edgeStyle=orthogonalEdgeStyle;rounded=0;orthogonalLoop=1;jettySize=auto;html=1;" parent="WIyWlLk6GJQsqaUBKTNV-1" target="o5AYfgIye7YQR3OT79Ui-0" edge="1">
          <mxGeometry relative="1" as="geometry">
            <mxPoint x="90" y="-2380" as="sourcePoint" />
          </mxGeometry>
        </mxCell>
        <mxCell id="o5AYfgIye7YQR3OT79Ui-33" value="" style="edgeStyle=orthogonalEdgeStyle;rounded=0;orthogonalLoop=1;jettySize=auto;html=1;" parent="WIyWlLk6GJQsqaUBKTNV-1" source="o5AYfgIye7YQR3OT79Ui-24" target="o5AYfgIye7YQR3OT79Ui-32" edge="1">
          <mxGeometry relative="1" as="geometry" />
        </mxCell>
        <mxCell id="kv04by_W9-tTmPrcjJE9-196" value="no" style="edgeLabel;html=1;align=center;verticalAlign=middle;resizable=0;points=[];" parent="o5AYfgIye7YQR3OT79Ui-33" vertex="1" connectable="0">
          <mxGeometry x="-0.5188" y="3" relative="1" as="geometry">
            <mxPoint x="1" as="offset" />
          </mxGeometry>
        </mxCell>
        <mxCell id="o5AYfgIye7YQR3OT79Ui-24" value="Pilihan == &#39;2&#39;" style="rhombus;whiteSpace=wrap;html=1;rounded=0;" parent="WIyWlLk6GJQsqaUBKTNV-1" vertex="1">
          <mxGeometry x="-300" y="-1950" width="90" height="100" as="geometry" />
        </mxCell>
        <mxCell id="o5AYfgIye7YQR3OT79Ui-32" value="Pilihan 3:&lt;div&gt;Keluar&lt;/div&gt;" style="whiteSpace=wrap;html=1;rounded=0;" parent="WIyWlLk6GJQsqaUBKTNV-1" vertex="1">
          <mxGeometry x="-500" y="-1780" width="120" height="60" as="geometry" />
        </mxCell>
        <mxCell id="o5AYfgIye7YQR3OT79Ui-35" value="Username = benar&lt;div&gt;password = benar&lt;/div&gt;" style="rhombus;whiteSpace=wrap;html=1;rounded=0;" parent="WIyWlLk6GJQsqaUBKTNV-1" vertex="1">
          <mxGeometry x="297.5" y="-1860" width="155" height="120" as="geometry" />
        </mxCell>
        <mxCell id="o5AYfgIye7YQR3OT79Ui-41" value="" style="edgeStyle=orthogonalEdgeStyle;rounded=0;orthogonalLoop=1;jettySize=auto;html=1;" parent="WIyWlLk6GJQsqaUBKTNV-1" source="oXb07rZDEVNdJx9yFHIo-64" target="o5AYfgIye7YQR3OT79Ui-40" edge="1">
          <mxGeometry relative="1" as="geometry" />
        </mxCell>
        <mxCell id="o5AYfgIye7YQR3OT79Ui-38" value="Peran: admin atau user" style="whiteSpace=wrap;html=1;rounded=0;" parent="WIyWlLk6GJQsqaUBKTNV-1" vertex="1">
          <mxGeometry x="475" y="-1670" width="150" height="50" as="geometry" />
        </mxCell>
        <mxCell id="o5AYfgIye7YQR3OT79Ui-40" value="peran = admin" style="rhombus;whiteSpace=wrap;html=1;rounded=0;" parent="WIyWlLk6GJQsqaUBKTNV-1" vertex="1">
          <mxGeometry x="500" y="-1475" width="100" height="90" as="geometry" />
        </mxCell>
        <mxCell id="oXb07rZDEVNdJx9yFHIo-54" style="edgeStyle=orthogonalEdgeStyle;rounded=0;orthogonalLoop=1;jettySize=auto;html=1;exitX=0.5;exitY=1;exitDx=0;exitDy=0;entryX=0.5;entryY=0;entryDx=0;entryDy=0;" parent="WIyWlLk6GJQsqaUBKTNV-1" source="83gg9yhNTPZYEPTGOBz0-15" target="o5AYfgIye7YQR3OT79Ui-76" edge="1">
          <mxGeometry relative="1" as="geometry" />
        </mxCell>
        <mxCell id="o5AYfgIye7YQR3OT79Ui-74" value="Password &amp;lt; 5" style="rhombus;whiteSpace=wrap;html=1;rounded=0;" parent="WIyWlLk6GJQsqaUBKTNV-1" vertex="1">
          <mxGeometry x="-275" y="-1630" width="95" height="80" as="geometry" />
        </mxCell>
        <mxCell id="oXb07rZDEVNdJx9yFHIo-67" value="" style="edgeStyle=orthogonalEdgeStyle;rounded=0;orthogonalLoop=1;jettySize=auto;html=1;" parent="WIyWlLk6GJQsqaUBKTNV-1" source="o5AYfgIye7YQR3OT79Ui-76" target="oXb07rZDEVNdJx9yFHIo-66" edge="1">
          <mxGeometry relative="1" as="geometry" />
        </mxCell>
        <mxCell id="o5AYfgIye7YQR3OT79Ui-76" value="Peran = user" style="whiteSpace=wrap;html=1;rounded=0;" parent="WIyWlLk6GJQsqaUBKTNV-1" vertex="1">
          <mxGeometry x="-390" y="-1460" width="80" height="47.5" as="geometry" />
        </mxCell>
        <mxCell id="oXb07rZDEVNdJx9yFHIo-0" value="Start" style="strokeWidth=2;html=1;shape=mxgraph.flowchart.start_1;whiteSpace=wrap;" parent="WIyWlLk6GJQsqaUBKTNV-1" vertex="1">
          <mxGeometry x="40" y="-2440" width="100" height="60" as="geometry" />
        </mxCell>
        <mxCell id="oXb07rZDEVNdJx9yFHIo-34" value="" style="edgeStyle=orthogonalEdgeStyle;rounded=0;orthogonalLoop=1;jettySize=auto;html=1;" parent="WIyWlLk6GJQsqaUBKTNV-1" source="o5AYfgIye7YQR3OT79Ui-40" target="oXb07rZDEVNdJx9yFHIo-33" edge="1">
          <mxGeometry relative="1" as="geometry">
            <mxPoint x="600" y="-1542" as="sourcePoint" />
            <mxPoint x="465" y="-1445" as="targetPoint" />
          </mxGeometry>
        </mxCell>
        <mxCell id="oXb07rZDEVNdJx9yFHIo-35" value="no" style="edgeLabel;html=1;align=center;verticalAlign=middle;resizable=0;points=[];" parent="oXb07rZDEVNdJx9yFHIo-34" vertex="1" connectable="0">
          <mxGeometry x="-0.4401" y="-1" relative="1" as="geometry">
            <mxPoint as="offset" />
          </mxGeometry>
        </mxCell>
        <mxCell id="kv04by_W9-tTmPrcjJE9-30" value="" style="edgeStyle=orthogonalEdgeStyle;rounded=0;orthogonalLoop=1;jettySize=auto;html=1;" parent="WIyWlLk6GJQsqaUBKTNV-1" source="oXb07rZDEVNdJx9yFHIo-33" target="kv04by_W9-tTmPrcjJE9-29" edge="1">
          <mxGeometry relative="1" as="geometry" />
        </mxCell>
        <mxCell id="oXb07rZDEVNdJx9yFHIo-33" value="Pilih opsi (1/2/3):&lt;div&gt;1. Tambah Password&lt;/div&gt;&lt;div&gt;2. Lihat Password&lt;/div&gt;&lt;div&gt;3. Logout&lt;/div&gt;" style="shape=parallelogram;html=1;strokeWidth=2;perimeter=parallelogramPerimeter;whiteSpace=wrap;rounded=1;arcSize=12;size=0.23;" parent="WIyWlLk6GJQsqaUBKTNV-1" vertex="1">
          <mxGeometry x="-21.25" y="-1380" width="187.5" height="100" as="geometry" />
        </mxCell>
        <mxCell id="oXb07rZDEVNdJx9yFHIo-41" value="" style="edgeStyle=orthogonalEdgeStyle;rounded=0;orthogonalLoop=1;jettySize=auto;html=1;" parent="WIyWlLk6GJQsqaUBKTNV-1" source="o5AYfgIye7YQR3OT79Ui-40" target="oXb07rZDEVNdJx9yFHIo-40" edge="1">
          <mxGeometry relative="1" as="geometry">
            <mxPoint x="700" y="-1542" as="sourcePoint" />
            <mxPoint x="940" y="-1470" as="targetPoint" />
          </mxGeometry>
        </mxCell>
        <mxCell id="oXb07rZDEVNdJx9yFHIo-42" value="yes" style="edgeLabel;html=1;align=center;verticalAlign=middle;resizable=0;points=[];" parent="oXb07rZDEVNdJx9yFHIo-41" vertex="1" connectable="0">
          <mxGeometry x="-0.2522" y="-1" relative="1" as="geometry">
            <mxPoint as="offset" />
          </mxGeometry>
        </mxCell>
        <mxCell id="kv04by_W9-tTmPrcjJE9-146" style="edgeStyle=orthogonalEdgeStyle;rounded=0;orthogonalLoop=1;jettySize=auto;html=1;exitX=0.5;exitY=1;exitDx=0;exitDy=0;" parent="WIyWlLk6GJQsqaUBKTNV-1" source="oXb07rZDEVNdJx9yFHIo-40" target="kv04by_W9-tTmPrcjJE9-137" edge="1">
          <mxGeometry relative="1" as="geometry" />
        </mxCell>
        <mxCell id="oXb07rZDEVNdJx9yFHIo-40" value="Pilih opsi (1/2/3/4/5):&lt;div&gt;1. Tambah Password&lt;/div&gt;&lt;div&gt;2. Lihat Password&lt;/div&gt;&lt;div&gt;3. Update Password&lt;/div&gt;&lt;div&gt;4. Hapus Password&lt;/div&gt;&lt;div&gt;5. Logout&amp;nbsp;&lt;/div&gt;" style="shape=parallelogram;html=1;strokeWidth=2;perimeter=parallelogramPerimeter;whiteSpace=wrap;rounded=1;arcSize=12;size=0.23;" parent="WIyWlLk6GJQsqaUBKTNV-1" vertex="1">
          <mxGeometry x="855" y="-1367.5" width="220" height="125" as="geometry" />
        </mxCell>
        <mxCell id="oXb07rZDEVNdJx9yFHIo-48" value="End" style="strokeWidth=2;html=1;shape=mxgraph.flowchart.start_1;whiteSpace=wrap;" parent="WIyWlLk6GJQsqaUBKTNV-1" vertex="1">
          <mxGeometry x="22.5" y="-30" width="100" height="60" as="geometry" />
        </mxCell>
        <mxCell id="oXb07rZDEVNdJx9yFHIo-49" style="edgeStyle=orthogonalEdgeStyle;rounded=0;orthogonalLoop=1;jettySize=auto;html=1;exitX=0.5;exitY=1;exitDx=0;exitDy=0;entryX=0;entryY=0.5;entryDx=0;entryDy=0;entryPerimeter=0;" parent="WIyWlLk6GJQsqaUBKTNV-1" source="o5AYfgIye7YQR3OT79Ui-32" target="oXb07rZDEVNdJx9yFHIo-48" edge="1">
          <mxGeometry relative="1" as="geometry">
            <mxPoint x="-430" y="-1710" as="sourcePoint" />
            <mxPoint x="-50" y="120" as="targetPoint" />
            <Array as="points">
              <mxPoint x="-440" />
            </Array>
          </mxGeometry>
        </mxCell>
        <mxCell id="oXb07rZDEVNdJx9yFHIo-51" value="" style="edgeStyle=orthogonalEdgeStyle;rounded=0;orthogonalLoop=1;jettySize=auto;html=1;" parent="WIyWlLk6GJQsqaUBKTNV-1" source="oXb07rZDEVNdJx9yFHIo-60" target="oXb07rZDEVNdJx9yFHIo-50" edge="1">
          <mxGeometry relative="1" as="geometry">
            <mxPoint x="-170" y="-1900" as="sourcePoint" />
            <mxPoint x="-45" y="-1829.9999999999998" as="targetPoint" />
          </mxGeometry>
        </mxCell>
        <mxCell id="oXb07rZDEVNdJx9yFHIo-50" value="Masukkan Username&lt;div&gt;Masukkan Password&lt;/div&gt;" style="shape=parallelogram;html=1;strokeWidth=2;perimeter=parallelogramPerimeter;whiteSpace=wrap;rounded=1;arcSize=12;size=0.23;" parent="WIyWlLk6GJQsqaUBKTNV-1" vertex="1">
          <mxGeometry x="-180" y="-1780" width="190" height="60" as="geometry" />
        </mxCell>
        <mxCell id="oXb07rZDEVNdJx9yFHIo-57" value="" style="edgeStyle=orthogonalEdgeStyle;rounded=0;orthogonalLoop=1;jettySize=auto;html=1;" parent="WIyWlLk6GJQsqaUBKTNV-1" source="o5AYfgIye7YQR3OT79Ui-16" target="oXb07rZDEVNdJx9yFHIo-56" edge="1">
          <mxGeometry relative="1" as="geometry">
            <mxPoint x="135" y="-2010" as="sourcePoint" />
            <mxPoint x="375" y="-1950" as="targetPoint" />
          </mxGeometry>
        </mxCell>
        <mxCell id="oXb07rZDEVNdJx9yFHIo-58" value="yes" style="edgeLabel;html=1;align=center;verticalAlign=middle;resizable=0;points=[];" parent="oXb07rZDEVNdJx9yFHIo-57" vertex="1" connectable="0">
          <mxGeometry x="-0.7001" y="2" relative="1" as="geometry">
            <mxPoint x="1" as="offset" />
          </mxGeometry>
        </mxCell>
        <mxCell id="oXb07rZDEVNdJx9yFHIo-59" style="edgeStyle=orthogonalEdgeStyle;rounded=0;orthogonalLoop=1;jettySize=auto;html=1;exitX=0.5;exitY=1;exitDx=0;exitDy=0;" parent="WIyWlLk6GJQsqaUBKTNV-1" source="oXb07rZDEVNdJx9yFHIo-56" target="o5AYfgIye7YQR3OT79Ui-35" edge="1">
          <mxGeometry relative="1" as="geometry" />
        </mxCell>
        <mxCell id="oXb07rZDEVNdJx9yFHIo-56" value="Input Username&lt;div&gt;Input Password&lt;/div&gt;" style="shape=parallelogram;html=1;strokeWidth=2;perimeter=parallelogramPerimeter;whiteSpace=wrap;rounded=1;arcSize=12;size=0.23;" parent="WIyWlLk6GJQsqaUBKTNV-1" vertex="1">
          <mxGeometry x="280" y="-1950" width="190" height="60" as="geometry" />
        </mxCell>
        <mxCell id="oXb07rZDEVNdJx9yFHIo-61" value="" style="edgeStyle=orthogonalEdgeStyle;rounded=0;orthogonalLoop=1;jettySize=auto;html=1;" parent="WIyWlLk6GJQsqaUBKTNV-1" source="o5AYfgIye7YQR3OT79Ui-24" target="oXb07rZDEVNdJx9yFHIo-60" edge="1">
          <mxGeometry relative="1" as="geometry">
            <mxPoint x="-170" y="-1900" as="sourcePoint" />
            <mxPoint x="-45" y="-1810" as="targetPoint" />
          </mxGeometry>
        </mxCell>
        <mxCell id="oXb07rZDEVNdJx9yFHIo-62" value="yes" style="edgeLabel;html=1;align=center;verticalAlign=middle;resizable=0;points=[];" parent="oXb07rZDEVNdJx9yFHIo-61" vertex="1" connectable="0">
          <mxGeometry x="-0.0987" y="3" relative="1" as="geometry">
            <mxPoint x="-1" as="offset" />
          </mxGeometry>
        </mxCell>
        <mxCell id="oXb07rZDEVNdJx9yFHIo-60" value="Registrasi pengguna baru" style="whiteSpace=wrap;html=1;rounded=0;" parent="WIyWlLk6GJQsqaUBKTNV-1" vertex="1">
          <mxGeometry x="-148.75" y="-1840" width="127.5" height="40" as="geometry" />
        </mxCell>
        <mxCell id="oXb07rZDEVNdJx9yFHIo-65" value="" style="edgeStyle=orthogonalEdgeStyle;rounded=0;orthogonalLoop=1;jettySize=auto;html=1;" parent="WIyWlLk6GJQsqaUBKTNV-1" source="o5AYfgIye7YQR3OT79Ui-38" target="oXb07rZDEVNdJx9yFHIo-64" edge="1">
          <mxGeometry relative="1" as="geometry">
            <mxPoint x="650" y="-1640" as="sourcePoint" />
            <mxPoint x="650" y="-1540" as="targetPoint" />
          </mxGeometry>
        </mxCell>
        <mxCell id="oXb07rZDEVNdJx9yFHIo-64" value="Program Sistem Manajemen Password" style="whiteSpace=wrap;html=1;rounded=0;" parent="WIyWlLk6GJQsqaUBKTNV-1" vertex="1">
          <mxGeometry x="487.5" y="-1580" width="125" height="62.5" as="geometry" />
        </mxCell>
        <mxCell id="oXb07rZDEVNdJx9yFHIo-88" style="edgeStyle=orthogonalEdgeStyle;rounded=0;orthogonalLoop=1;jettySize=auto;html=1;exitX=0.5;exitY=1;exitDx=0;exitDy=0;entryX=0;entryY=0.5;entryDx=0;entryDy=0;" parent="WIyWlLk6GJQsqaUBKTNV-1" source="oXb07rZDEVNdJx9yFHIo-66" target="o5AYfgIye7YQR3OT79Ui-0" edge="1">
          <mxGeometry relative="1" as="geometry">
            <mxPoint x="-255" y="-1270" as="targetPoint" />
            <Array as="points">
              <mxPoint x="-340" y="-1260" />
              <mxPoint x="-520" y="-1260" />
              <mxPoint x="-520" y="-2280" />
            </Array>
          </mxGeometry>
        </mxCell>
        <mxCell id="oXb07rZDEVNdJx9yFHIo-66" value="Kembali ke Menu Utama" style="whiteSpace=wrap;html=1;rounded=0;" parent="WIyWlLk6GJQsqaUBKTNV-1" vertex="1">
          <mxGeometry x="-410" y="-1380" width="120" height="60" as="geometry" />
        </mxCell>
        <mxCell id="mSmKxec_PEiz_WWABHEc-1" value="" style="edgeStyle=orthogonalEdgeStyle;rounded=0;orthogonalLoop=1;jettySize=auto;html=1;exitX=0.5;exitY=1;exitDx=0;exitDy=0;" parent="WIyWlLk6GJQsqaUBKTNV-1" source="oXb07rZDEVNdJx9yFHIo-50" target="mSmKxec_PEiz_WWABHEc-0" edge="1">
          <mxGeometry relative="1" as="geometry">
            <mxPoint x="-85" y="-1720" as="sourcePoint" />
            <mxPoint x="-85" y="-1580" as="targetPoint" />
          </mxGeometry>
        </mxCell>
        <mxCell id="mSmKxec_PEiz_WWABHEc-8" style="edgeStyle=orthogonalEdgeStyle;rounded=0;orthogonalLoop=1;jettySize=auto;html=1;exitX=0;exitY=0.5;exitDx=0;exitDy=0;entryX=0.5;entryY=0;entryDx=0;entryDy=0;" parent="WIyWlLk6GJQsqaUBKTNV-1" source="mSmKxec_PEiz_WWABHEc-0" target="o5AYfgIye7YQR3OT79Ui-74" edge="1">
          <mxGeometry relative="1" as="geometry" />
        </mxCell>
        <mxCell id="mSmKxec_PEiz_WWABHEc-0" value="username in data_akun" style="rhombus;whiteSpace=wrap;html=1;" parent="WIyWlLk6GJQsqaUBKTNV-1" vertex="1">
          <mxGeometry x="-137.5" y="-1700" width="105" height="100" as="geometry" />
        </mxCell>
        <mxCell id="kv04by_W9-tTmPrcjJE9-1" value="" style="endArrow=classic;html=1;rounded=0;" parent="WIyWlLk6GJQsqaUBKTNV-1" edge="1">
          <mxGeometry width="50" height="50" relative="1" as="geometry">
            <mxPoint x="295" y="-1940" as="sourcePoint" />
            <mxPoint x="335" y="-1940" as="targetPoint" />
            <Array as="points">
              <mxPoint x="335" y="-1940" />
            </Array>
          </mxGeometry>
        </mxCell>
        <mxCell id="kv04by_W9-tTmPrcjJE9-2" value="" style="endArrow=classic;html=1;rounded=0;" parent="WIyWlLk6GJQsqaUBKTNV-1" edge="1">
          <mxGeometry width="50" height="50" relative="1" as="geometry">
            <mxPoint y="-2200" as="sourcePoint" />
            <mxPoint x="40" y="-2200" as="targetPoint" />
            <Array as="points">
              <mxPoint x="40" y="-2200" />
            </Array>
          </mxGeometry>
        </mxCell>
        <mxCell id="kv04by_W9-tTmPrcjJE9-5" value="" style="edgeStyle=orthogonalEdgeStyle;rounded=0;orthogonalLoop=1;jettySize=auto;html=1;" parent="WIyWlLk6GJQsqaUBKTNV-1" source="o5AYfgIye7YQR3OT79Ui-35" target="kv04by_W9-tTmPrcjJE9-3" edge="1">
          <mxGeometry relative="1" as="geometry">
            <mxPoint x="298" y="-1800" as="sourcePoint" />
            <mxPoint x="220" y="-1730" as="targetPoint" />
          </mxGeometry>
        </mxCell>
        <mxCell id="kv04by_W9-tTmPrcjJE9-6" value="no" style="edgeLabel;html=1;align=center;verticalAlign=middle;resizable=0;points=[];" parent="kv04by_W9-tTmPrcjJE9-5" vertex="1" connectable="0">
          <mxGeometry x="-0.4727" y="-2" relative="1" as="geometry">
            <mxPoint as="offset" />
          </mxGeometry>
        </mxCell>
        <mxCell id="kv04by_W9-tTmPrcjJE9-8" value="" style="edgeStyle=orthogonalEdgeStyle;rounded=0;orthogonalLoop=1;jettySize=auto;html=1;entryX=0;entryY=0.5;entryDx=0;entryDy=0;exitX=0;exitY=0.5;exitDx=0;exitDy=0;" parent="WIyWlLk6GJQsqaUBKTNV-1" source="kv04by_W9-tTmPrcjJE9-3" target="oXb07rZDEVNdJx9yFHIo-56" edge="1">
          <mxGeometry relative="1" as="geometry">
            <mxPoint x="180" y="-1820" as="targetPoint" />
            <Array as="points">
              <mxPoint x="130" y="-1655" />
              <mxPoint x="130" y="-1920" />
            </Array>
          </mxGeometry>
        </mxCell>
        <mxCell id="kv04by_W9-tTmPrcjJE9-3" value="Username atau Password salah. Silahkan coba lagi." style="shape=parallelogram;perimeter=parallelogramPerimeter;whiteSpace=wrap;html=1;fixedSize=1;" parent="WIyWlLk6GJQsqaUBKTNV-1" vertex="1">
          <mxGeometry x="120" y="-1680" width="175" height="70" as="geometry" />
        </mxCell>
        <mxCell id="kv04by_W9-tTmPrcjJE9-10" value="" style="endArrow=classic;html=1;rounded=0;" parent="WIyWlLk6GJQsqaUBKTNV-1" edge="1">
          <mxGeometry width="50" height="50" relative="1" as="geometry">
            <mxPoint x="257.5" y="-1620" as="sourcePoint" />
            <mxPoint x="297.5" y="-1620" as="targetPoint" />
            <Array as="points">
              <mxPoint x="297.5" y="-1620" />
            </Array>
          </mxGeometry>
        </mxCell>
        <mxCell id="kv04by_W9-tTmPrcjJE9-16" value="" style="edgeStyle=orthogonalEdgeStyle;rounded=0;orthogonalLoop=1;jettySize=auto;html=1;entryX=0.5;entryY=0;entryDx=0;entryDy=0;" parent="WIyWlLk6GJQsqaUBKTNV-1" source="o5AYfgIye7YQR3OT79Ui-35" target="kv04by_W9-tTmPrcjJE9-15" edge="1">
          <mxGeometry relative="1" as="geometry">
            <mxPoint x="453" y="-1800" as="sourcePoint" />
            <mxPoint x="590" y="-1750" as="targetPoint" />
            <Array as="points">
              <mxPoint x="550" y="-1800" />
            </Array>
          </mxGeometry>
        </mxCell>
        <mxCell id="kv04by_W9-tTmPrcjJE9-103" value="yes" style="edgeLabel;html=1;align=center;verticalAlign=middle;resizable=0;points=[];" parent="kv04by_W9-tTmPrcjJE9-16" vertex="1" connectable="0">
          <mxGeometry x="-0.3072" y="-6" relative="1" as="geometry">
            <mxPoint x="-1" as="offset" />
          </mxGeometry>
        </mxCell>
        <mxCell id="kv04by_W9-tTmPrcjJE9-18" style="edgeStyle=orthogonalEdgeStyle;rounded=0;orthogonalLoop=1;jettySize=auto;html=1;exitX=0.5;exitY=1;exitDx=0;exitDy=0;" parent="WIyWlLk6GJQsqaUBKTNV-1" source="kv04by_W9-tTmPrcjJE9-15" target="o5AYfgIye7YQR3OT79Ui-38" edge="1">
          <mxGeometry relative="1" as="geometry" />
        </mxCell>
        <mxCell id="kv04by_W9-tTmPrcjJE9-15" value="Login berhasil." style="shape=parallelogram;perimeter=parallelogramPerimeter;whiteSpace=wrap;html=1;fixedSize=1;" parent="WIyWlLk6GJQsqaUBKTNV-1" vertex="1">
          <mxGeometry x="490" y="-1770" width="120" height="60" as="geometry" />
        </mxCell>
        <mxCell id="kv04by_W9-tTmPrcjJE9-19" value="" style="endArrow=classic;html=1;rounded=0;" parent="WIyWlLk6GJQsqaUBKTNV-1" edge="1">
          <mxGeometry width="50" height="50" relative="1" as="geometry">
            <mxPoint x="570" y="-1720" as="sourcePoint" />
            <mxPoint x="610" y="-1720" as="targetPoint" />
            <Array as="points">
              <mxPoint x="610" y="-1720" />
            </Array>
          </mxGeometry>
        </mxCell>
        <mxCell id="kv04by_W9-tTmPrcjJE9-24" value="" style="endArrow=classic;html=1;rounded=0;" parent="WIyWlLk6GJQsqaUBKTNV-1" edge="1">
          <mxGeometry width="50" height="50" relative="1" as="geometry">
            <mxPoint x="-10" y="-1367.5" as="sourcePoint" />
            <mxPoint x="30" y="-1367.5" as="targetPoint" />
            <Array as="points">
              <mxPoint x="10" y="-1367.5" />
              <mxPoint x="30" y="-1367.5" />
            </Array>
          </mxGeometry>
        </mxCell>
        <mxCell id="kv04by_W9-tTmPrcjJE9-36" style="edgeStyle=orthogonalEdgeStyle;rounded=0;orthogonalLoop=1;jettySize=auto;html=1;exitX=1;exitY=0.5;exitDx=0;exitDy=0;entryX=0.5;entryY=0;entryDx=0;entryDy=0;" parent="WIyWlLk6GJQsqaUBKTNV-1" source="kv04by_W9-tTmPrcjJE9-29" target="kv04by_W9-tTmPrcjJE9-31" edge="1">
          <mxGeometry relative="1" as="geometry" />
        </mxCell>
        <mxCell id="kv04by_W9-tTmPrcjJE9-43" value="yes" style="edgeLabel;html=1;align=center;verticalAlign=middle;resizable=0;points=[];" parent="kv04by_W9-tTmPrcjJE9-36" vertex="1" connectable="0">
          <mxGeometry x="-0.3165" y="-3" relative="1" as="geometry">
            <mxPoint as="offset" />
          </mxGeometry>
        </mxCell>
        <mxCell id="kv04by_W9-tTmPrcjJE9-42" value="" style="edgeStyle=orthogonalEdgeStyle;rounded=0;orthogonalLoop=1;jettySize=auto;html=1;entryX=0.5;entryY=0;entryDx=0;entryDy=0;" parent="WIyWlLk6GJQsqaUBKTNV-1" source="kv04by_W9-tTmPrcjJE9-29" target="kv04by_W9-tTmPrcjJE9-41" edge="1">
          <mxGeometry relative="1" as="geometry" />
        </mxCell>
        <mxCell id="kv04by_W9-tTmPrcjJE9-44" value="no" style="edgeLabel;html=1;align=center;verticalAlign=middle;resizable=0;points=[];" parent="kv04by_W9-tTmPrcjJE9-42" vertex="1" connectable="0">
          <mxGeometry x="-0.5243" relative="1" as="geometry">
            <mxPoint x="1" as="offset" />
          </mxGeometry>
        </mxCell>
        <mxCell id="kv04by_W9-tTmPrcjJE9-29" value="Pilihan == &#39;1&#39;" style="rhombus;whiteSpace=wrap;html=1;strokeWidth=2;rounded=1;arcSize=12;" parent="WIyWlLk6GJQsqaUBKTNV-1" vertex="1">
          <mxGeometry x="18.75" y="-1245" width="107.5" height="100" as="geometry" />
        </mxCell>
        <mxCell id="kv04by_W9-tTmPrcjJE9-38" value="" style="edgeStyle=orthogonalEdgeStyle;rounded=0;orthogonalLoop=1;jettySize=auto;html=1;" parent="WIyWlLk6GJQsqaUBKTNV-1" source="kv04by_W9-tTmPrcjJE9-31" target="kv04by_W9-tTmPrcjJE9-37" edge="1">
          <mxGeometry relative="1" as="geometry" />
        </mxCell>
        <mxCell id="kv04by_W9-tTmPrcjJE9-31" value="Input website&lt;div&gt;Input username&lt;/div&gt;&lt;div&gt;Input password&lt;/div&gt;" style="shape=parallelogram;perimeter=parallelogramPerimeter;whiteSpace=wrap;html=1;fixedSize=1;strokeWidth=2;rounded=1;arcSize=12;" parent="WIyWlLk6GJQsqaUBKTNV-1" vertex="1">
          <mxGeometry x="110" y="-1145" width="150" height="80" as="geometry" />
        </mxCell>
        <mxCell id="kv04by_W9-tTmPrcjJE9-184" style="edgeStyle=orthogonalEdgeStyle;rounded=0;orthogonalLoop=1;jettySize=auto;html=1;exitX=0.5;exitY=1;exitDx=0;exitDy=0;entryX=0;entryY=0.5;entryDx=0;entryDy=0;" parent="WIyWlLk6GJQsqaUBKTNV-1" source="kv04by_W9-tTmPrcjJE9-37" target="kv04by_W9-tTmPrcjJE9-182" edge="1">
          <mxGeometry relative="1" as="geometry" />
        </mxCell>
        <mxCell id="kv04by_W9-tTmPrcjJE9-37" value="Password berhasil ditambahkan." style="shape=parallelogram;perimeter=parallelogramPerimeter;whiteSpace=wrap;html=1;fixedSize=1;strokeWidth=2;rounded=1;arcSize=12;" parent="WIyWlLk6GJQsqaUBKTNV-1" vertex="1">
          <mxGeometry x="114.36999999999999" y="-1030" width="141.25" height="60" as="geometry" />
        </mxCell>
        <mxCell id="kv04by_W9-tTmPrcjJE9-47" style="edgeStyle=orthogonalEdgeStyle;rounded=0;orthogonalLoop=1;jettySize=auto;html=1;exitX=1;exitY=0.5;exitDx=0;exitDy=0;entryX=0.5;entryY=0;entryDx=0;entryDy=0;" parent="WIyWlLk6GJQsqaUBKTNV-1" source="kv04by_W9-tTmPrcjJE9-41" target="kv04by_W9-tTmPrcjJE9-45" edge="1">
          <mxGeometry relative="1" as="geometry" />
        </mxCell>
        <mxCell id="kv04by_W9-tTmPrcjJE9-48" value="yes" style="edgeLabel;html=1;align=center;verticalAlign=middle;resizable=0;points=[];" parent="kv04by_W9-tTmPrcjJE9-47" vertex="1" connectable="0">
          <mxGeometry x="-0.6105" y="4" relative="1" as="geometry">
            <mxPoint as="offset" />
          </mxGeometry>
        </mxCell>
        <mxCell id="kv04by_W9-tTmPrcjJE9-70" value="" style="edgeStyle=orthogonalEdgeStyle;rounded=0;orthogonalLoop=1;jettySize=auto;html=1;" parent="WIyWlLk6GJQsqaUBKTNV-1" source="kv04by_W9-tTmPrcjJE9-41" target="kv04by_W9-tTmPrcjJE9-69" edge="1">
          <mxGeometry relative="1" as="geometry" />
        </mxCell>
        <mxCell id="kv04by_W9-tTmPrcjJE9-71" value="no" style="edgeLabel;html=1;align=center;verticalAlign=middle;resizable=0;points=[];" parent="kv04by_W9-tTmPrcjJE9-70" vertex="1" connectable="0">
          <mxGeometry x="-0.5104" y="-1" relative="1" as="geometry">
            <mxPoint as="offset" />
          </mxGeometry>
        </mxCell>
        <mxCell id="kv04by_W9-tTmPrcjJE9-41" value="Pilihan == &#39;2&#39;" style="rhombus;whiteSpace=wrap;html=1;strokeWidth=2;rounded=1;arcSize=12;" parent="WIyWlLk6GJQsqaUBKTNV-1" vertex="1">
          <mxGeometry x="-210" y="-1165" width="107.5" height="100" as="geometry" />
        </mxCell>
        <mxCell id="kv04by_W9-tTmPrcjJE9-183" style="edgeStyle=orthogonalEdgeStyle;rounded=0;orthogonalLoop=1;jettySize=auto;html=1;exitX=0.5;exitY=1;exitDx=0;exitDy=0;entryX=0;entryY=0.5;entryDx=0;entryDy=0;" parent="WIyWlLk6GJQsqaUBKTNV-1" source="kv04by_W9-tTmPrcjJE9-45" target="kv04by_W9-tTmPrcjJE9-182" edge="1">
          <mxGeometry relative="1" as="geometry" />
        </mxCell>
        <mxCell id="kv04by_W9-tTmPrcjJE9-45" value="Tampilkan Daftar Password" style="shape=parallelogram;perimeter=parallelogramPerimeter;whiteSpace=wrap;html=1;fixedSize=1;strokeWidth=2;rounded=1;arcSize=12;" parent="WIyWlLk6GJQsqaUBKTNV-1" vertex="1">
          <mxGeometry x="-101.25" y="-1045" width="146.25" height="45" as="geometry" />
        </mxCell>
        <mxCell id="kv04by_W9-tTmPrcjJE9-192" style="edgeStyle=orthogonalEdgeStyle;rounded=0;orthogonalLoop=1;jettySize=auto;html=1;exitX=0.5;exitY=1;exitDx=0;exitDy=0;entryX=0;entryY=0.5;entryDx=0;entryDy=0;" parent="WIyWlLk6GJQsqaUBKTNV-1" source="kv04by_W9-tTmPrcjJE9-69" target="kv04by_W9-tTmPrcjJE9-191" edge="1">
          <mxGeometry relative="1" as="geometry" />
        </mxCell>
        <mxCell id="kv04by_W9-tTmPrcjJE9-69" value="Pilihan 3:&lt;div&gt;Logout&lt;/div&gt;" style="whiteSpace=wrap;html=1;strokeWidth=2;rounded=1;arcSize=12;" parent="WIyWlLk6GJQsqaUBKTNV-1" vertex="1">
          <mxGeometry x="-350" y="-1060" width="120" height="60" as="geometry" />
        </mxCell>
        <mxCell id="kv04by_W9-tTmPrcjJE9-102" style="edgeStyle=orthogonalEdgeStyle;rounded=0;orthogonalLoop=1;jettySize=auto;html=1;exitX=0.5;exitY=1;exitDx=0;exitDy=0;" parent="WIyWlLk6GJQsqaUBKTNV-1" source="kv04by_W9-tTmPrcjJE9-15" target="kv04by_W9-tTmPrcjJE9-15" edge="1">
          <mxGeometry relative="1" as="geometry" />
        </mxCell>
        <mxCell id="kv04by_W9-tTmPrcjJE9-133" style="edgeStyle=orthogonalEdgeStyle;rounded=0;orthogonalLoop=1;jettySize=auto;html=1;exitX=1;exitY=0.5;exitDx=0;exitDy=0;entryX=0.5;entryY=0;entryDx=0;entryDy=0;" parent="WIyWlLk6GJQsqaUBKTNV-1" source="kv04by_W9-tTmPrcjJE9-137" target="kv04by_W9-tTmPrcjJE9-139" edge="1">
          <mxGeometry relative="1" as="geometry" />
        </mxCell>
        <mxCell id="kv04by_W9-tTmPrcjJE9-134" value="yes" style="edgeLabel;html=1;align=center;verticalAlign=middle;resizable=0;points=[];" parent="kv04by_W9-tTmPrcjJE9-133" vertex="1" connectable="0">
          <mxGeometry x="-0.3165" y="-3" relative="1" as="geometry">
            <mxPoint as="offset" />
          </mxGeometry>
        </mxCell>
        <mxCell id="kv04by_W9-tTmPrcjJE9-135" value="" style="edgeStyle=orthogonalEdgeStyle;rounded=0;orthogonalLoop=1;jettySize=auto;html=1;entryX=0.5;entryY=0;entryDx=0;entryDy=0;" parent="WIyWlLk6GJQsqaUBKTNV-1" source="kv04by_W9-tTmPrcjJE9-137" target="kv04by_W9-tTmPrcjJE9-144" edge="1">
          <mxGeometry relative="1" as="geometry" />
        </mxCell>
        <mxCell id="kv04by_W9-tTmPrcjJE9-136" value="no" style="edgeLabel;html=1;align=center;verticalAlign=middle;resizable=0;points=[];" parent="kv04by_W9-tTmPrcjJE9-135" vertex="1" connectable="0">
          <mxGeometry x="-0.5243" relative="1" as="geometry">
            <mxPoint x="1" as="offset" />
          </mxGeometry>
        </mxCell>
        <mxCell id="kv04by_W9-tTmPrcjJE9-137" value="Pilihan == &#39;1&#39;" style="rhombus;whiteSpace=wrap;html=1;strokeWidth=2;rounded=1;arcSize=12;" parent="WIyWlLk6GJQsqaUBKTNV-1" vertex="1">
          <mxGeometry x="912.5" y="-1200" width="107.5" height="100" as="geometry" />
        </mxCell>
        <mxCell id="kv04by_W9-tTmPrcjJE9-138" value="" style="edgeStyle=orthogonalEdgeStyle;rounded=0;orthogonalLoop=1;jettySize=auto;html=1;" parent="WIyWlLk6GJQsqaUBKTNV-1" source="kv04by_W9-tTmPrcjJE9-139" target="kv04by_W9-tTmPrcjJE9-140" edge="1">
          <mxGeometry relative="1" as="geometry" />
        </mxCell>
        <mxCell id="kv04by_W9-tTmPrcjJE9-139" value="Input website&lt;div&gt;Input username&lt;/div&gt;&lt;div&gt;Input password&lt;/div&gt;" style="shape=parallelogram;perimeter=parallelogramPerimeter;whiteSpace=wrap;html=1;fixedSize=1;strokeWidth=2;rounded=1;arcSize=12;" parent="WIyWlLk6GJQsqaUBKTNV-1" vertex="1">
          <mxGeometry x="1100" y="-1110" width="150" height="80" as="geometry" />
        </mxCell>
        <mxCell id="kv04by_W9-tTmPrcjJE9-189" style="edgeStyle=orthogonalEdgeStyle;rounded=0;orthogonalLoop=1;jettySize=auto;html=1;exitX=0.5;exitY=1;exitDx=0;exitDy=0;entryX=1;entryY=0.5;entryDx=0;entryDy=0;" parent="WIyWlLk6GJQsqaUBKTNV-1" source="kv04by_W9-tTmPrcjJE9-140" target="kv04by_W9-tTmPrcjJE9-182" edge="1">
          <mxGeometry relative="1" as="geometry" />
        </mxCell>
        <mxCell id="kv04by_W9-tTmPrcjJE9-140" value="Password berhasil ditambahkan." style="shape=parallelogram;perimeter=parallelogramPerimeter;whiteSpace=wrap;html=1;fixedSize=1;strokeWidth=2;rounded=1;arcSize=12;" parent="WIyWlLk6GJQsqaUBKTNV-1" vertex="1">
          <mxGeometry x="1100" y="-1000" width="150" height="80" as="geometry" />
        </mxCell>
        <mxCell id="kv04by_W9-tTmPrcjJE9-141" style="edgeStyle=orthogonalEdgeStyle;rounded=0;orthogonalLoop=1;jettySize=auto;html=1;exitX=1;exitY=0.5;exitDx=0;exitDy=0;entryX=0.5;entryY=0;entryDx=0;entryDy=0;" parent="WIyWlLk6GJQsqaUBKTNV-1" source="kv04by_W9-tTmPrcjJE9-144" target="kv04by_W9-tTmPrcjJE9-145" edge="1">
          <mxGeometry relative="1" as="geometry" />
        </mxCell>
        <mxCell id="kv04by_W9-tTmPrcjJE9-142" value="yes" style="edgeLabel;html=1;align=center;verticalAlign=middle;resizable=0;points=[];" parent="kv04by_W9-tTmPrcjJE9-141" vertex="1" connectable="0">
          <mxGeometry x="-0.6105" y="4" relative="1" as="geometry">
            <mxPoint as="offset" />
          </mxGeometry>
        </mxCell>
        <mxCell id="kv04by_W9-tTmPrcjJE9-148" value="" style="edgeStyle=orthogonalEdgeStyle;rounded=0;orthogonalLoop=1;jettySize=auto;html=1;" parent="WIyWlLk6GJQsqaUBKTNV-1" source="kv04by_W9-tTmPrcjJE9-144" target="kv04by_W9-tTmPrcjJE9-147" edge="1">
          <mxGeometry relative="1" as="geometry" />
        </mxCell>
        <mxCell id="kv04by_W9-tTmPrcjJE9-176" value="no" style="edgeLabel;html=1;align=center;verticalAlign=middle;resizable=0;points=[];" parent="kv04by_W9-tTmPrcjJE9-148" vertex="1" connectable="0">
          <mxGeometry x="-0.3516" y="1" relative="1" as="geometry">
            <mxPoint as="offset" />
          </mxGeometry>
        </mxCell>
        <mxCell id="kv04by_W9-tTmPrcjJE9-144" value="Pilihan == &#39;2&#39;" style="rhombus;whiteSpace=wrap;html=1;strokeWidth=2;rounded=1;arcSize=12;" parent="WIyWlLk6GJQsqaUBKTNV-1" vertex="1">
          <mxGeometry x="760" y="-1130" width="107.5" height="100" as="geometry" />
        </mxCell>
        <mxCell id="kv04by_W9-tTmPrcjJE9-188" style="edgeStyle=orthogonalEdgeStyle;rounded=0;orthogonalLoop=1;jettySize=auto;html=1;exitX=0.5;exitY=1;exitDx=0;exitDy=0;entryX=1;entryY=0.5;entryDx=0;entryDy=0;" parent="WIyWlLk6GJQsqaUBKTNV-1" source="kv04by_W9-tTmPrcjJE9-145" target="kv04by_W9-tTmPrcjJE9-182" edge="1">
          <mxGeometry relative="1" as="geometry" />
        </mxCell>
        <mxCell id="kv04by_W9-tTmPrcjJE9-145" value="Tampilkan Daftar Password" style="shape=parallelogram;perimeter=parallelogramPerimeter;whiteSpace=wrap;html=1;fixedSize=1;strokeWidth=2;rounded=1;arcSize=12;" parent="WIyWlLk6GJQsqaUBKTNV-1" vertex="1">
          <mxGeometry x="930" y="-1005" width="146.25" height="45" as="geometry" />
        </mxCell>
        <mxCell id="kv04by_W9-tTmPrcjJE9-152" value="" style="edgeStyle=orthogonalEdgeStyle;rounded=0;orthogonalLoop=1;jettySize=auto;html=1;" parent="WIyWlLk6GJQsqaUBKTNV-1" source="kv04by_W9-tTmPrcjJE9-147" target="kv04by_W9-tTmPrcjJE9-151" edge="1">
          <mxGeometry relative="1" as="geometry" />
        </mxCell>
        <mxCell id="kv04by_W9-tTmPrcjJE9-177" value="yes" style="edgeLabel;html=1;align=center;verticalAlign=middle;resizable=0;points=[];" parent="kv04by_W9-tTmPrcjJE9-152" vertex="1" connectable="0">
          <mxGeometry x="-0.4861" y="3" relative="1" as="geometry">
            <mxPoint as="offset" />
          </mxGeometry>
        </mxCell>
        <mxCell id="kv04by_W9-tTmPrcjJE9-167" value="" style="edgeStyle=orthogonalEdgeStyle;rounded=0;orthogonalLoop=1;jettySize=auto;html=1;" parent="WIyWlLk6GJQsqaUBKTNV-1" source="kv04by_W9-tTmPrcjJE9-147" target="kv04by_W9-tTmPrcjJE9-166" edge="1">
          <mxGeometry relative="1" as="geometry" />
        </mxCell>
        <mxCell id="kv04by_W9-tTmPrcjJE9-178" value="no" style="edgeLabel;html=1;align=center;verticalAlign=middle;resizable=0;points=[];" parent="kv04by_W9-tTmPrcjJE9-167" vertex="1" connectable="0">
          <mxGeometry x="-0.3758" y="4" relative="1" as="geometry">
            <mxPoint x="1" as="offset" />
          </mxGeometry>
        </mxCell>
        <mxCell id="kv04by_W9-tTmPrcjJE9-147" value="Pilihan == &#39;3&#39;" style="rhombus;whiteSpace=wrap;html=1;strokeWidth=2;rounded=1;arcSize=12;" parent="WIyWlLk6GJQsqaUBKTNV-1" vertex="1">
          <mxGeometry x="577.5" y="-1020" width="107.5" height="100" as="geometry" />
        </mxCell>
        <mxCell id="kv04by_W9-tTmPrcjJE9-163" style="edgeStyle=orthogonalEdgeStyle;rounded=0;orthogonalLoop=1;jettySize=auto;html=1;exitX=0.5;exitY=1;exitDx=0;exitDy=0;" parent="WIyWlLk6GJQsqaUBKTNV-1" source="kv04by_W9-tTmPrcjJE9-151" target="kv04by_W9-tTmPrcjJE9-154" edge="1">
          <mxGeometry relative="1" as="geometry" />
        </mxCell>
        <mxCell id="kv04by_W9-tTmPrcjJE9-151" value="Tampilkan Daftar Password" style="shape=parallelogram;perimeter=parallelogramPerimeter;whiteSpace=wrap;html=1;fixedSize=1;strokeWidth=2;rounded=1;arcSize=12;" parent="WIyWlLk6GJQsqaUBKTNV-1" vertex="1">
          <mxGeometry x="715" y="-910" width="130" height="50" as="geometry" />
        </mxCell>
        <mxCell id="kv04by_W9-tTmPrcjJE9-153" value="" style="edgeStyle=orthogonalEdgeStyle;rounded=0;orthogonalLoop=1;jettySize=auto;html=1;" parent="WIyWlLk6GJQsqaUBKTNV-1" source="kv04by_W9-tTmPrcjJE9-154" target="kv04by_W9-tTmPrcjJE9-159" edge="1">
          <mxGeometry relative="1" as="geometry" />
        </mxCell>
        <mxCell id="kv04by_W9-tTmPrcjJE9-154" value="Pilih nama website" style="shape=parallelogram;perimeter=parallelogramPerimeter;whiteSpace=wrap;html=1;fixedSize=1;strokeWidth=2;rounded=1;arcSize=12;" parent="WIyWlLk6GJQsqaUBKTNV-1" vertex="1">
          <mxGeometry x="712.5" y="-820" width="135" height="50" as="geometry" />
        </mxCell>
        <mxCell id="kv04by_W9-tTmPrcjJE9-155" value="" style="edgeStyle=orthogonalEdgeStyle;rounded=0;orthogonalLoop=1;jettySize=auto;html=1;" parent="WIyWlLk6GJQsqaUBKTNV-1" source="kv04by_W9-tTmPrcjJE9-159" target="kv04by_W9-tTmPrcjJE9-161" edge="1">
          <mxGeometry relative="1" as="geometry" />
        </mxCell>
        <mxCell id="kv04by_W9-tTmPrcjJE9-156" value="y" style="edgeLabel;html=1;align=center;verticalAlign=middle;resizable=0;points=[];" parent="kv04by_W9-tTmPrcjJE9-155" vertex="1" connectable="0">
          <mxGeometry x="-0.5825" y="-1" relative="1" as="geometry">
            <mxPoint as="offset" />
          </mxGeometry>
        </mxCell>
        <mxCell id="kv04by_W9-tTmPrcjJE9-157" value="" style="edgeStyle=orthogonalEdgeStyle;rounded=0;orthogonalLoop=1;jettySize=auto;html=1;" parent="WIyWlLk6GJQsqaUBKTNV-1" source="kv04by_W9-tTmPrcjJE9-159" target="kv04by_W9-tTmPrcjJE9-162" edge="1">
          <mxGeometry relative="1" as="geometry" />
        </mxCell>
        <mxCell id="kv04by_W9-tTmPrcjJE9-158" value="n" style="edgeLabel;html=1;align=center;verticalAlign=middle;resizable=0;points=[];" parent="kv04by_W9-tTmPrcjJE9-157" vertex="1" connectable="0">
          <mxGeometry x="-0.2867" y="-1" relative="1" as="geometry">
            <mxPoint as="offset" />
          </mxGeometry>
        </mxCell>
        <mxCell id="kv04by_W9-tTmPrcjJE9-159" value="Update website (y/n)" style="rhombus;whiteSpace=wrap;html=1;strokeWidth=2;rounded=1;arcSize=12;" parent="WIyWlLk6GJQsqaUBKTNV-1" vertex="1">
          <mxGeometry x="725" y="-740" width="110" height="100" as="geometry" />
        </mxCell>
        <mxCell id="kv04by_W9-tTmPrcjJE9-160" style="edgeStyle=orthogonalEdgeStyle;rounded=0;orthogonalLoop=1;jettySize=auto;html=1;entryX=1;entryY=0.5;entryDx=0;entryDy=0;" parent="WIyWlLk6GJQsqaUBKTNV-1" source="kv04by_W9-tTmPrcjJE9-161" target="kv04by_W9-tTmPrcjJE9-162" edge="1">
          <mxGeometry relative="1" as="geometry">
            <Array as="points">
              <mxPoint x="915" y="-530" />
            </Array>
          </mxGeometry>
        </mxCell>
        <mxCell id="kv04by_W9-tTmPrcjJE9-161" value="Input website baru" style="shape=parallelogram;perimeter=parallelogramPerimeter;whiteSpace=wrap;html=1;fixedSize=1;strokeWidth=2;rounded=1;arcSize=12;" parent="WIyWlLk6GJQsqaUBKTNV-1" vertex="1">
          <mxGeometry x="845" y="-630" width="140" height="45" as="geometry" />
        </mxCell>
        <mxCell id="kv04by_W9-tTmPrcjJE9-165" value="" style="edgeStyle=orthogonalEdgeStyle;rounded=0;orthogonalLoop=1;jettySize=auto;html=1;" parent="WIyWlLk6GJQsqaUBKTNV-1" source="kv04by_W9-tTmPrcjJE9-162" target="kv04by_W9-tTmPrcjJE9-164" edge="1">
          <mxGeometry relative="1" as="geometry" />
        </mxCell>
        <mxCell id="kv04by_W9-tTmPrcjJE9-162" value="Input username baru&lt;div&gt;Input password baru&lt;/div&gt;" style="shape=parallelogram;perimeter=parallelogramPerimeter;whiteSpace=wrap;html=1;fixedSize=1;strokeWidth=2;rounded=1;arcSize=12;" parent="WIyWlLk6GJQsqaUBKTNV-1" vertex="1">
          <mxGeometry x="702.5" y="-560" width="155" height="60" as="geometry" />
        </mxCell>
        <mxCell id="kv04by_W9-tTmPrcjJE9-187" style="edgeStyle=orthogonalEdgeStyle;rounded=0;orthogonalLoop=1;jettySize=auto;html=1;exitX=0.5;exitY=1;exitDx=0;exitDy=0;entryX=1;entryY=0.5;entryDx=0;entryDy=0;" parent="WIyWlLk6GJQsqaUBKTNV-1" source="kv04by_W9-tTmPrcjJE9-164" target="kv04by_W9-tTmPrcjJE9-182" edge="1">
          <mxGeometry relative="1" as="geometry" />
        </mxCell>
        <mxCell id="kv04by_W9-tTmPrcjJE9-164" value="Password berhasil diperbarui" style="shape=parallelogram;perimeter=parallelogramPerimeter;whiteSpace=wrap;html=1;fixedSize=1;strokeWidth=2;rounded=1;arcSize=12;" parent="WIyWlLk6GJQsqaUBKTNV-1" vertex="1">
          <mxGeometry x="711.25" y="-450" width="137.5" height="50" as="geometry" />
        </mxCell>
        <mxCell id="kv04by_W9-tTmPrcjJE9-175" value="" style="edgeStyle=orthogonalEdgeStyle;rounded=0;orthogonalLoop=1;jettySize=auto;html=1;" parent="WIyWlLk6GJQsqaUBKTNV-1" source="kv04by_W9-tTmPrcjJE9-166" target="kv04by_W9-tTmPrcjJE9-174" edge="1">
          <mxGeometry relative="1" as="geometry" />
        </mxCell>
        <mxCell id="kv04by_W9-tTmPrcjJE9-180" value="no" style="edgeLabel;html=1;align=center;verticalAlign=middle;resizable=0;points=[];" parent="kv04by_W9-tTmPrcjJE9-175" vertex="1" connectable="0">
          <mxGeometry x="-0.4066" y="1" relative="1" as="geometry">
            <mxPoint x="1" as="offset" />
          </mxGeometry>
        </mxCell>
        <mxCell id="kv04by_W9-tTmPrcjJE9-208" style="edgeStyle=orthogonalEdgeStyle;rounded=0;orthogonalLoop=1;jettySize=auto;html=1;exitX=1;exitY=0.5;exitDx=0;exitDy=0;entryX=0.5;entryY=0;entryDx=0;entryDy=0;" parent="WIyWlLk6GJQsqaUBKTNV-1" source="kv04by_W9-tTmPrcjJE9-166" target="kv04by_W9-tTmPrcjJE9-168" edge="1">
          <mxGeometry relative="1" as="geometry" />
        </mxCell>
        <mxCell id="kv04by_W9-tTmPrcjJE9-210" value="yes" style="edgeLabel;html=1;align=center;verticalAlign=middle;resizable=0;points=[];" parent="kv04by_W9-tTmPrcjJE9-208" vertex="1" connectable="0">
          <mxGeometry x="-0.3507" y="-2" relative="1" as="geometry">
            <mxPoint as="offset" />
          </mxGeometry>
        </mxCell>
        <mxCell id="kv04by_W9-tTmPrcjJE9-166" value="Pilihan == &#39;4&#39;" style="rhombus;whiteSpace=wrap;html=1;strokeWidth=2;rounded=1;arcSize=12;" parent="WIyWlLk6GJQsqaUBKTNV-1" vertex="1">
          <mxGeometry x="382.5" y="-910" width="107.5" height="100" as="geometry" />
        </mxCell>
        <mxCell id="kv04by_W9-tTmPrcjJE9-171" value="" style="edgeStyle=orthogonalEdgeStyle;rounded=0;orthogonalLoop=1;jettySize=auto;html=1;" parent="WIyWlLk6GJQsqaUBKTNV-1" source="kv04by_W9-tTmPrcjJE9-168" target="kv04by_W9-tTmPrcjJE9-170" edge="1">
          <mxGeometry relative="1" as="geometry" />
        </mxCell>
        <mxCell id="kv04by_W9-tTmPrcjJE9-168" value="Tampilkan Daftar Password" style="shape=parallelogram;perimeter=parallelogramPerimeter;whiteSpace=wrap;html=1;fixedSize=1;strokeWidth=2;rounded=1;arcSize=12;" parent="WIyWlLk6GJQsqaUBKTNV-1" vertex="1">
          <mxGeometry x="483.75" y="-805" width="132.5" height="55" as="geometry" />
        </mxCell>
        <mxCell id="kv04by_W9-tTmPrcjJE9-173" value="" style="edgeStyle=orthogonalEdgeStyle;rounded=0;orthogonalLoop=1;jettySize=auto;html=1;" parent="WIyWlLk6GJQsqaUBKTNV-1" source="kv04by_W9-tTmPrcjJE9-170" target="kv04by_W9-tTmPrcjJE9-172" edge="1">
          <mxGeometry relative="1" as="geometry" />
        </mxCell>
        <mxCell id="kv04by_W9-tTmPrcjJE9-170" value="Pilih nama website" style="shape=parallelogram;perimeter=parallelogramPerimeter;whiteSpace=wrap;html=1;fixedSize=1;strokeWidth=2;rounded=1;arcSize=12;" parent="WIyWlLk6GJQsqaUBKTNV-1" vertex="1">
          <mxGeometry x="480" y="-720" width="140" height="45" as="geometry" />
        </mxCell>
        <mxCell id="kv04by_W9-tTmPrcjJE9-185" style="edgeStyle=orthogonalEdgeStyle;rounded=0;orthogonalLoop=1;jettySize=auto;html=1;exitX=0.5;exitY=1;exitDx=0;exitDy=0;entryX=0.5;entryY=0;entryDx=0;entryDy=0;" parent="WIyWlLk6GJQsqaUBKTNV-1" source="kv04by_W9-tTmPrcjJE9-172" target="kv04by_W9-tTmPrcjJE9-182" edge="1">
          <mxGeometry relative="1" as="geometry" />
        </mxCell>
        <mxCell id="kv04by_W9-tTmPrcjJE9-172" value="Password berhasil dihapus" style="shape=parallelogram;perimeter=parallelogramPerimeter;whiteSpace=wrap;html=1;fixedSize=1;strokeWidth=2;rounded=1;arcSize=12;" parent="WIyWlLk6GJQsqaUBKTNV-1" vertex="1">
          <mxGeometry x="480" y="-640" width="140" height="45" as="geometry" />
        </mxCell>
        <mxCell id="kv04by_W9-tTmPrcjJE9-193" style="edgeStyle=orthogonalEdgeStyle;rounded=0;orthogonalLoop=1;jettySize=auto;html=1;exitX=0.5;exitY=1;exitDx=0;exitDy=0;entryX=1;entryY=0.5;entryDx=0;entryDy=0;" parent="WIyWlLk6GJQsqaUBKTNV-1" source="kv04by_W9-tTmPrcjJE9-174" target="kv04by_W9-tTmPrcjJE9-191" edge="1">
          <mxGeometry relative="1" as="geometry" />
        </mxCell>
        <mxCell id="kv04by_W9-tTmPrcjJE9-174" value="Pilih 5:&amp;nbsp;&lt;div&gt;Logout&lt;/div&gt;" style="whiteSpace=wrap;html=1;strokeWidth=2;rounded=1;arcSize=12;" parent="WIyWlLk6GJQsqaUBKTNV-1" vertex="1">
          <mxGeometry x="248.75" y="-805" width="120" height="60" as="geometry" />
        </mxCell>
        <mxCell id="kv04by_W9-tTmPrcjJE9-190" style="edgeStyle=orthogonalEdgeStyle;rounded=0;orthogonalLoop=1;jettySize=auto;html=1;exitX=0.5;exitY=1;exitDx=0;exitDy=0;entryX=1;entryY=0.5;entryDx=0;entryDy=0;" parent="WIyWlLk6GJQsqaUBKTNV-1" source="kv04by_W9-tTmPrcjJE9-182" target="oXb07rZDEVNdJx9yFHIo-64" edge="1">
          <mxGeometry relative="1" as="geometry">
            <mxPoint x="1450" y="-1560" as="targetPoint" />
            <Array as="points">
              <mxPoint x="550" y="-240" />
              <mxPoint x="1320" y="-240" />
              <mxPoint x="1320" y="-1549" />
            </Array>
          </mxGeometry>
        </mxCell>
        <mxCell id="kv04by_W9-tTmPrcjJE9-182" value="Kembali ke menu Sistem Manajemen Password" style="whiteSpace=wrap;html=1;" parent="WIyWlLk6GJQsqaUBKTNV-1" vertex="1">
          <mxGeometry x="485" y="-340" width="130" height="60" as="geometry" />
        </mxCell>
        <mxCell id="kv04by_W9-tTmPrcjJE9-194" style="edgeStyle=orthogonalEdgeStyle;rounded=0;orthogonalLoop=1;jettySize=auto;html=1;exitX=0.5;exitY=1;exitDx=0;exitDy=0;entryX=1;entryY=0.5;entryDx=0;entryDy=0;" parent="WIyWlLk6GJQsqaUBKTNV-1" source="kv04by_W9-tTmPrcjJE9-191" target="o5AYfgIye7YQR3OT79Ui-0" edge="1">
          <mxGeometry relative="1" as="geometry">
            <mxPoint x="1540" y="-2280" as="targetPoint" />
            <Array as="points">
              <mxPoint x="10" y="-80" />
              <mxPoint x="1400" y="-80" />
              <mxPoint x="1400" y="-2280" />
            </Array>
          </mxGeometry>
        </mxCell>
        <mxCell id="kv04by_W9-tTmPrcjJE9-191" value="Kembali ke Menu Utama" style="whiteSpace=wrap;html=1;" parent="WIyWlLk6GJQsqaUBKTNV-1" vertex="1">
          <mxGeometry x="-50" y="-190" width="120" height="60" as="geometry" />
        </mxCell>
        <mxCell id="kv04by_W9-tTmPrcjJE9-199" value="" style="endArrow=classic;html=1;rounded=0;" parent="WIyWlLk6GJQsqaUBKTNV-1" edge="1">
          <mxGeometry width="50" height="50" relative="1" as="geometry">
            <mxPoint x="-70" y="-1440" as="sourcePoint" />
            <mxPoint x="-30" y="-1440" as="targetPoint" />
            <Array as="points">
              <mxPoint x="-30" y="-1440" />
            </Array>
          </mxGeometry>
        </mxCell>
        <mxCell id="kv04by_W9-tTmPrcjJE9-201" value="" style="endArrow=classic;html=1;rounded=0;" parent="WIyWlLk6GJQsqaUBKTNV-1" edge="1">
          <mxGeometry width="50" height="50" relative="1" as="geometry">
            <mxPoint x="580" y="-608" as="sourcePoint" />
            <mxPoint x="620" y="-608" as="targetPoint" />
            <Array as="points">
              <mxPoint x="620" y="-608" />
            </Array>
          </mxGeometry>
        </mxCell>
        <mxCell id="kv04by_W9-tTmPrcjJE9-202" value="" style="endArrow=classic;html=1;rounded=0;" parent="WIyWlLk6GJQsqaUBKTNV-1" edge="1">
          <mxGeometry width="50" height="50" relative="1" as="geometry">
            <mxPoint x="475" y="-710" as="sourcePoint" />
            <mxPoint x="515" y="-710" as="targetPoint" />
            <Array as="points">
              <mxPoint x="515" y="-710" />
            </Array>
          </mxGeometry>
        </mxCell>
        <mxCell id="kv04by_W9-tTmPrcjJE9-203" value="" style="endArrow=classic;html=1;rounded=0;" parent="WIyWlLk6GJQsqaUBKTNV-1" edge="1">
          <mxGeometry width="50" height="50" relative="1" as="geometry">
            <mxPoint x="572.5" y="-760" as="sourcePoint" />
            <mxPoint x="612.5" y="-760" as="targetPoint" />
            <Array as="points">
              <mxPoint x="612.5" y="-760" />
            </Array>
          </mxGeometry>
        </mxCell>
        <mxCell id="kv04by_W9-tTmPrcjJE9-204" value="" style="endArrow=classic;html=1;rounded=0;" parent="WIyWlLk6GJQsqaUBKTNV-1" edge="1">
          <mxGeometry width="50" height="50" relative="1" as="geometry">
            <mxPoint x="5" y="-1006" as="sourcePoint" />
            <mxPoint x="45" y="-1006" as="targetPoint" />
            <Array as="points">
              <mxPoint x="45" y="-1006" />
            </Array>
          </mxGeometry>
        </mxCell>
        <mxCell id="kv04by_W9-tTmPrcjJE9-205" value="" style="endArrow=classic;html=1;rounded=0;" parent="WIyWlLk6GJQsqaUBKTNV-1" edge="1">
          <mxGeometry width="50" height="50" relative="1" as="geometry">
            <mxPoint x="215.62" y="-983" as="sourcePoint" />
            <mxPoint x="255.62" y="-983" as="targetPoint" />
            <Array as="points">
              <mxPoint x="255.62" y="-983" />
            </Array>
          </mxGeometry>
        </mxCell>
        <mxCell id="kv04by_W9-tTmPrcjJE9-206" value="" style="endArrow=classic;html=1;rounded=0;" parent="WIyWlLk6GJQsqaUBKTNV-1" edge="1">
          <mxGeometry width="50" height="50" relative="1" as="geometry">
            <mxPoint x="-170" y="-1770" as="sourcePoint" />
            <mxPoint x="-130" y="-1770" as="targetPoint" />
            <Array as="points">
              <mxPoint x="-130" y="-1770" />
            </Array>
          </mxGeometry>
        </mxCell>
        <mxCell id="kv04by_W9-tTmPrcjJE9-207" value="" style="endArrow=classic;html=1;rounded=0;" parent="WIyWlLk6GJQsqaUBKTNV-1" edge="1">
          <mxGeometry width="50" height="50" relative="1" as="geometry">
            <mxPoint x="100" y="-1130" as="sourcePoint" />
            <mxPoint x="140" y="-1130" as="targetPoint" />
            <Array as="points">
              <mxPoint x="140" y="-1130" />
            </Array>
          </mxGeometry>
        </mxCell>
        <mxCell id="kv04by_W9-tTmPrcjJE9-211" value="" style="endArrow=classic;html=1;rounded=0;" parent="WIyWlLk6GJQsqaUBKTNV-1" edge="1">
          <mxGeometry width="50" height="50" relative="1" as="geometry">
            <mxPoint x="1210" y="-930" as="sourcePoint" />
            <mxPoint x="1250" y="-930" as="targetPoint" />
            <Array as="points">
              <mxPoint x="1250" y="-930" />
            </Array>
          </mxGeometry>
        </mxCell>
        <mxCell id="kv04by_W9-tTmPrcjJE9-212" value="" style="endArrow=classic;html=1;rounded=0;" parent="WIyWlLk6GJQsqaUBKTNV-1" edge="1">
          <mxGeometry width="50" height="50" relative="1" as="geometry">
            <mxPoint x="808.75" y="-410" as="sourcePoint" />
            <mxPoint x="848.75" y="-410" as="targetPoint" />
            <Array as="points">
              <mxPoint x="848.75" y="-410" />
            </Array>
          </mxGeometry>
        </mxCell>
        <mxCell id="kv04by_W9-tTmPrcjJE9-213" value="" style="endArrow=classic;html=1;rounded=0;" parent="WIyWlLk6GJQsqaUBKTNV-1" edge="1">
          <mxGeometry width="50" height="50" relative="1" as="geometry">
            <mxPoint x="700" y="-550" as="sourcePoint" />
            <mxPoint x="740" y="-550" as="targetPoint" />
            <Array as="points">
              <mxPoint x="740" y="-550" />
            </Array>
          </mxGeometry>
        </mxCell>
        <mxCell id="kv04by_W9-tTmPrcjJE9-214" value="" style="endArrow=classic;html=1;rounded=0;" parent="WIyWlLk6GJQsqaUBKTNV-1" edge="1">
          <mxGeometry width="50" height="50" relative="1" as="geometry">
            <mxPoint x="845" y="-620" as="sourcePoint" />
            <mxPoint x="885" y="-620" as="targetPoint" />
            <Array as="points">
              <mxPoint x="885" y="-620" />
            </Array>
          </mxGeometry>
        </mxCell>
        <mxCell id="kv04by_W9-tTmPrcjJE9-215" value="" style="endArrow=classic;html=1;rounded=0;" parent="WIyWlLk6GJQsqaUBKTNV-1" edge="1">
          <mxGeometry width="50" height="50" relative="1" as="geometry">
            <mxPoint x="711.25" y="-810" as="sourcePoint" />
            <mxPoint x="751.25" y="-810" as="targetPoint" />
            <Array as="points">
              <mxPoint x="751.25" y="-810" />
            </Array>
          </mxGeometry>
        </mxCell>
        <mxCell id="kv04by_W9-tTmPrcjJE9-216" value="" style="endArrow=classic;html=1;rounded=0;" parent="WIyWlLk6GJQsqaUBKTNV-1" edge="1">
          <mxGeometry width="50" height="50" relative="1" as="geometry">
            <mxPoint x="805" y="-870" as="sourcePoint" />
            <mxPoint x="845" y="-870" as="targetPoint" />
            <Array as="points">
              <mxPoint x="845" y="-870" />
            </Array>
          </mxGeometry>
        </mxCell>
        <mxCell id="kv04by_W9-tTmPrcjJE9-217" value="" style="endArrow=classic;html=1;rounded=0;" parent="WIyWlLk6GJQsqaUBKTNV-1" edge="1">
          <mxGeometry width="50" height="50" relative="1" as="geometry">
            <mxPoint x="880" y="-1360" as="sourcePoint" />
            <mxPoint x="920" y="-1360" as="targetPoint" />
            <Array as="points">
              <mxPoint x="920" y="-1360" />
            </Array>
          </mxGeometry>
        </mxCell>
        <mxCell id="kv04by_W9-tTmPrcjJE9-218" value="" style="endArrow=classic;html=1;rounded=0;" parent="WIyWlLk6GJQsqaUBKTNV-1" edge="1">
          <mxGeometry width="50" height="50" relative="1" as="geometry">
            <mxPoint x="1100" y="-1100" as="sourcePoint" />
            <mxPoint x="1140" y="-1100" as="targetPoint" />
            <Array as="points">
              <mxPoint x="1140" y="-1100" />
            </Array>
          </mxGeometry>
        </mxCell>
        <mxCell id="kv04by_W9-tTmPrcjJE9-219" value="" style="endArrow=classic;html=1;rounded=0;" parent="WIyWlLk6GJQsqaUBKTNV-1" edge="1">
          <mxGeometry width="50" height="50" relative="1" as="geometry">
            <mxPoint x="1036.25" y="-970.48" as="sourcePoint" />
            <mxPoint x="1076.25" y="-970.48" as="targetPoint" />
            <Array as="points">
              <mxPoint x="1076.25" y="-970.48" />
            </Array>
          </mxGeometry>
        </mxCell>
        <mxCell id="83gg9yhNTPZYEPTGOBz0-2" value="" style="edgeStyle=orthogonalEdgeStyle;rounded=0;orthogonalLoop=1;jettySize=auto;html=1;" edge="1" parent="WIyWlLk6GJQsqaUBKTNV-1" source="mSmKxec_PEiz_WWABHEc-0" target="83gg9yhNTPZYEPTGOBz0-0">
          <mxGeometry relative="1" as="geometry">
            <mxPoint x="-32" y="-1650" as="sourcePoint" />
            <mxPoint x="38.799999999999955" y="-1572.5" as="targetPoint" />
          </mxGeometry>
        </mxCell>
        <mxCell id="83gg9yhNTPZYEPTGOBz0-3" value="yes" style="edgeLabel;html=1;align=center;verticalAlign=middle;resizable=0;points=[];" vertex="1" connectable="0" parent="83gg9yhNTPZYEPTGOBz0-2">
          <mxGeometry x="-0.6758" y="3" relative="1" as="geometry">
            <mxPoint x="1" as="offset" />
          </mxGeometry>
        </mxCell>
        <mxCell id="83gg9yhNTPZYEPTGOBz0-5" style="edgeStyle=orthogonalEdgeStyle;rounded=0;orthogonalLoop=1;jettySize=auto;html=1;exitX=0.5;exitY=1;exitDx=0;exitDy=0;entryX=1;entryY=0.5;entryDx=0;entryDy=0;" edge="1" parent="WIyWlLk6GJQsqaUBKTNV-1" source="83gg9yhNTPZYEPTGOBz0-0" target="oXb07rZDEVNdJx9yFHIo-60">
          <mxGeometry relative="1" as="geometry">
            <Array as="points">
              <mxPoint x="36" y="-1489" />
              <mxPoint x="110" y="-1489" />
              <mxPoint x="110" y="-1820" />
            </Array>
          </mxGeometry>
        </mxCell>
        <mxCell id="83gg9yhNTPZYEPTGOBz0-0" value="Username sudah ada. Pilih username yang lain." style="shape=parallelogram;perimeter=parallelogramPerimeter;whiteSpace=wrap;html=1;fixedSize=1;" vertex="1" parent="WIyWlLk6GJQsqaUBKTNV-1">
          <mxGeometry x="-21.25" y="-1588.75" width="115" height="80" as="geometry" />
        </mxCell>
        <mxCell id="kv04by_W9-tTmPrcjJE9-200" value="" style="endArrow=classic;html=1;rounded=0;" parent="WIyWlLk6GJQsqaUBKTNV-1" edge="1">
          <mxGeometry width="50" height="50" relative="1" as="geometry">
            <mxPoint x="52.5" y="-1518.5" as="sourcePoint" />
            <mxPoint x="92.5" y="-1518.5" as="targetPoint" />
            <Array as="points">
              <mxPoint x="92.5" y="-1518.5" />
            </Array>
          </mxGeometry>
        </mxCell>
        <mxCell id="83gg9yhNTPZYEPTGOBz0-8" value="" style="edgeStyle=orthogonalEdgeStyle;rounded=0;orthogonalLoop=1;jettySize=auto;html=1;" edge="1" parent="WIyWlLk6GJQsqaUBKTNV-1" source="o5AYfgIye7YQR3OT79Ui-74" target="83gg9yhNTPZYEPTGOBz0-6">
          <mxGeometry relative="1" as="geometry">
            <mxPoint x="-180" y="-1590" as="sourcePoint" />
            <mxPoint x="-110" y="-1460" as="targetPoint" />
          </mxGeometry>
        </mxCell>
        <mxCell id="83gg9yhNTPZYEPTGOBz0-9" value="yes" style="edgeLabel;html=1;align=center;verticalAlign=middle;resizable=0;points=[];" vertex="1" connectable="0" parent="83gg9yhNTPZYEPTGOBz0-8">
          <mxGeometry x="-0.434" relative="1" as="geometry">
            <mxPoint as="offset" />
          </mxGeometry>
        </mxCell>
        <mxCell id="83gg9yhNTPZYEPTGOBz0-10" style="edgeStyle=orthogonalEdgeStyle;rounded=0;orthogonalLoop=1;jettySize=auto;html=1;exitX=1;exitY=0.5;exitDx=0;exitDy=0;entryX=1;entryY=0.5;entryDx=0;entryDy=0;" edge="1" parent="WIyWlLk6GJQsqaUBKTNV-1" source="83gg9yhNTPZYEPTGOBz0-6" target="oXb07rZDEVNdJx9yFHIo-60">
          <mxGeometry relative="1" as="geometry">
            <Array as="points">
              <mxPoint x="110" y="-1457" />
              <mxPoint x="110" y="-1820" />
            </Array>
          </mxGeometry>
        </mxCell>
        <mxCell id="83gg9yhNTPZYEPTGOBz0-17" value="" style="edgeStyle=orthogonalEdgeStyle;rounded=0;orthogonalLoop=1;jettySize=auto;html=1;exitX=0;exitY=0.5;exitDx=0;exitDy=0;entryX=0.5;entryY=0;entryDx=0;entryDy=0;" edge="1" parent="WIyWlLk6GJQsqaUBKTNV-1" source="o5AYfgIye7YQR3OT79Ui-74" target="83gg9yhNTPZYEPTGOBz0-15">
          <mxGeometry relative="1" as="geometry">
            <mxPoint x="-275" y="-1590" as="sourcePoint" />
            <mxPoint x="-360" y="-1547" as="targetPoint" />
          </mxGeometry>
        </mxCell>
        <mxCell id="83gg9yhNTPZYEPTGOBz0-18" value="no" style="edgeLabel;html=1;align=center;verticalAlign=middle;resizable=0;points=[];" vertex="1" connectable="0" parent="83gg9yhNTPZYEPTGOBz0-17">
          <mxGeometry x="-0.7024" y="-1" relative="1" as="geometry">
            <mxPoint x="1" as="offset" />
          </mxGeometry>
        </mxCell>
        <mxCell id="83gg9yhNTPZYEPTGOBz0-15" value="Registrasi berhasil." style="shape=parallelogram;perimeter=parallelogramPerimeter;whiteSpace=wrap;html=1;fixedSize=1;rounded=0;" vertex="1" parent="WIyWlLk6GJQsqaUBKTNV-1">
          <mxGeometry x="-420" y="-1550" width="140" height="50" as="geometry" />
        </mxCell>
        <mxCell id="83gg9yhNTPZYEPTGOBz0-12" value="" style="endArrow=classic;html=1;rounded=0;" edge="1" parent="WIyWlLk6GJQsqaUBKTNV-1">
          <mxGeometry width="50" height="50" relative="1" as="geometry">
            <mxPoint x="-320" y="-1508.75" as="sourcePoint" />
            <mxPoint x="-280" y="-1508.75" as="targetPoint" />
            <Array as="points">
              <mxPoint x="-280" y="-1508.75" />
            </Array>
          </mxGeometry>
        </mxCell>
      </root>
    </mxGraphModel>
  </diagram>
</mxfile>
